<?xml version="1.0" encoding="UTF-8" standalone="no"?>
<!DOCTYPE svg PUBLIC "-//W3C//DTD SVG 1.1//EN"
 "http://www.w3.org/Graphics/SVG/1.1/DTD/svg11.dtd">
<!-- Generated by graphviz version 2.50.0 (0)
 -->
<!-- Title: dependency&#45;cruiser output Pages: 1 -->
<svg width="292pt" height="754pt"
 viewBox="0.00 0.00 292.00 754.00" xmlns="http://www.w3.org/2000/svg" xmlns:xlink="http://www.w3.org/1999/xlink">
<g id="graph0" class="graph" transform="scale(1 1) rotate(0) translate(4 750)">
<title>dependency&#45;cruiser output</title>
<polygon fill="white" stroke="transparent" points="-4,4 -4,-750 288,-750 288,4 -4,4"/>
<g id="clust1" class="cluster">
<title>cluster_bin</title>
<path fill="#ffffff" stroke="black" stroke-width="2" d="M39.5,-615C39.5,-615 102.5,-615 102.5,-615 108.5,-615 114.5,-621 114.5,-627 114.5,-627 114.5,-655 114.5,-655 114.5,-661 108.5,-667 102.5,-667 102.5,-667 39.5,-667 39.5,-667 33.5,-667 27.5,-661 27.5,-655 27.5,-655 27.5,-627 27.5,-627 27.5,-621 33.5,-615 39.5,-615"/>
<text text-anchor="middle" x="71" y="-655.8" font-family="Helvetica,sans-Serif" font-weight="bold" font-size="9.00">bin</text>
</g>
<g id="clust2" class="cluster">
<title>cluster_commands</title>
<path fill="#ffffff" stroke="black" stroke-width="2" d="M20,-368C20,-368 122,-368 122,-368 128,-368 134,-374 134,-380 134,-380 134,-468 134,-468 134,-474 128,-480 122,-480 122,-480 20,-480 20,-480 14,-480 8,-474 8,-468 8,-468 8,-380 8,-380 8,-374 14,-368 20,-368"/>
<text text-anchor="middle" x="71" y="-468.8" font-family="Helvetica,sans-Serif" font-weight="bold" font-size="9.00">commands</text>
</g>
<g id="clust3" class="cluster">
<title>cluster_fs</title>
<path fill="#ffffff" stroke="black" stroke-width="2" d="M184.5,-8C184.5,-8 233.5,-8 233.5,-8 239.5,-8 245.5,-14 245.5,-20 245.5,-20 245.5,-48 245.5,-48 245.5,-54 239.5,-60 233.5,-60 233.5,-60 184.5,-60 184.5,-60 178.5,-60 172.5,-54 172.5,-48 172.5,-48 172.5,-20 172.5,-20 172.5,-14 178.5,-8 184.5,-8"/>
<text text-anchor="middle" x="209" y="-48.8" font-family="Helvetica,sans-Serif" font-weight="bold" font-size="9.00">fs</text>
</g>
<g id="clust4" class="cluster">
<title>cluster_git_host_utilities</title>
<path fill="#ffffff" stroke="black" stroke-width="2" d="M33,-68C33,-68 110,-68 110,-68 116,-68 122,-74 122,-80 122,-80 122,-138 122,-138 122,-144 116,-150 110,-150 110,-150 33,-150 33,-150 27,-150 21,-144 21,-138 21,-138 21,-80 21,-80 21,-74 27,-68 33,-68"/>
<text text-anchor="middle" x="71.5" y="-138.8" font-family="Helvetica,sans-Serif" font-weight="bold" font-size="9.00">git_host_utilities</text>
</g>
<g id="clust5" class="cluster">
<title>cluster_node_modules</title>
<path fill="#ffffff" stroke="black" stroke-width="2" d="M154,-68C154,-68 264,-68 264,-68 270,-68 276,-74 276,-80 276,-80 276,-678 276,-678 276,-684 270,-690 264,-690 264,-690 154,-690 154,-690 148,-690 142,-684 142,-678 142,-678 142,-80 142,-80 142,-74 148,-68 154,-68"/>
<text text-anchor="middle" x="209" y="-678.8" font-family="Helvetica,sans-Serif" font-weight="bold" font-size="9.00">node_modules</text>
</g>
<!-- bin/announce.js -->
<g id="node1" class="node">
<title>bin/announce.js</title>
<g id="a_node1"><a xlink:href="https://github.com/twyr/announce/blob/main/bin/announce.js" xlink:title="announce.js">
<path fill="#ffffcc" stroke="black" d="M100.5,-641C100.5,-641 41.5,-641 41.5,-641 38.5,-641 35.5,-638 35.5,-635 35.5,-635 35.5,-629 35.5,-629 35.5,-626 38.5,-623 41.5,-623 41.5,-623 100.5,-623 100.5,-623 103.5,-623 106.5,-626 106.5,-629 106.5,-629 106.5,-635 106.5,-635 106.5,-638 103.5,-641 100.5,-641"/>
<text text-anchor="start" x="43.5" y="-629.8" font-family="Helvetica,sans-Serif" font-size="9.00">announce.js</text>
</a>
</g>
</g>
<!-- package.json -->
<g id="node2" class="node">
<title>package.json</title>
<g id="a_node2"><a xlink:href="https://github.com/twyr/announce/blob/main/package.json" xlink:title="package.json">
<path fill="#ffee44" stroke="black" d="M241,-746C241,-746 177,-746 177,-746 174,-746 171,-743 171,-740 171,-740 171,-734 171,-734 171,-731 174,-728 177,-728 177,-728 241,-728 241,-728 244,-728 247,-731 247,-734 247,-734 247,-740 247,-740 247,-743 244,-746 241,-746"/>
<text text-anchor="middle" x="209" y="-734.8" font-family="Helvetica,sans-Serif" font-size="9.00">package.json</text>
</a>
</g>
</g>
<!-- bin/announce.js&#45;&gt;package.json -->
<g id="edge1" class="edge">
<title>bin/announce.js&#45;&gt;package.json</title>
<path fill="none" stroke="#000000" stroke-width="2" stroke-opacity="0.200000" d="M87.83,-641C102.17,-650.01 122.73,-665.2 134,-684 142.88,-698.8 129.89,-709.7 142,-722 148.16,-728.26 156.35,-732.14 164.86,-734.5"/>
<polygon fill="#000000" fill-opacity="0.200000" stroke="#000000" stroke-width="2" stroke-opacity="0.200000" points="164.46,-736.57 170.78,-735.91 165.43,-732.48 164.46,-736.57"/>
</g>
<!-- node_modules/commander -->
<g id="node3" class="node">
<title>node_modules/commander</title>
<g id="a_node3"><a xlink:href="https://github.com/twyr/announce/blob/main/node_modules/commander" xlink:title="commander">
<polygon fill="#c40b0a" fill-opacity="0.101961" stroke="black" points="244.5,-544 175.5,-544 173.5,-542 173.5,-526 242.5,-526 244.5,-528 244.5,-544"/>
<polyline fill="none" stroke="black" points="242.5,-542 173.5,-542 "/>
<polyline fill="none" stroke="black" points="242.5,-542 242.5,-526 "/>
<polyline fill="none" stroke="black" points="242.5,-542 244.5,-544 "/>
<text text-anchor="start" x="181.5" y="-532.8" font-family="Helvetica,sans-Serif" font-size="9.00" fill="#c40b0a">commander</text>
</a>
</g>
</g>
<!-- bin/announce.js&#45;&gt;node_modules/commander -->
<g id="edge2" class="edge">
<title>bin/announce.js&#45;&gt;node_modules/commander</title>
<path fill="none" stroke="#000000" stroke-opacity="0.200000" d="M77.01,-622.94C87,-605.81 111.09,-568.69 142,-550 149.6,-545.41 158.46,-542.22 167.18,-540"/>
<polygon fill="#000000" fill-opacity="0.200000" stroke="#000000" stroke-opacity="0.200000" points="167.8,-542.02 173.18,-538.62 166.86,-537.92 167.8,-542.02"/>
</g>
<!-- node_modules/cosmiconfig -->
<g id="node4" class="node">
<title>node_modules/cosmiconfig</title>
<g id="a_node4"><a xlink:href="https://github.com/twyr/announce/blob/main/node_modules/cosmiconfig" xlink:title="cosmiconfig">
<polygon fill="#c40b0a" fill-opacity="0.101961" stroke="black" points="244.5,-604 175.5,-604 173.5,-602 173.5,-586 242.5,-586 244.5,-588 244.5,-604"/>
<polyline fill="none" stroke="black" points="242.5,-602 173.5,-602 "/>
<polyline fill="none" stroke="black" points="242.5,-602 242.5,-586 "/>
<polyline fill="none" stroke="black" points="242.5,-602 244.5,-604 "/>
<text text-anchor="start" x="181.5" y="-592.8" font-family="Helvetica,sans-Serif" font-size="9.00" fill="#c40b0a">cosmiconfig</text>
</a>
</g>
</g>
<!-- bin/announce.js&#45;&gt;node_modules/cosmiconfig -->
<g id="edge3" class="edge">
<title>bin/announce.js&#45;&gt;node_modules/cosmiconfig</title>
<path fill="none" stroke="#000000" stroke-opacity="0.200000" d="M99.11,-622.92C112.02,-618.73 127.73,-613.86 142,-610 150.04,-607.83 158.7,-605.7 167,-603.77"/>
<polygon fill="#000000" fill-opacity="0.200000" stroke="#000000" stroke-opacity="0.200000" points="167.89,-605.73 173.27,-602.34 166.96,-601.63 167.89,-605.73"/>
</g>
<!-- node_modules/fdir -->
<g id="node5" class="node">
<title>node_modules/fdir</title>
<g id="a_node5"><a xlink:href="https://github.com/twyr/announce/blob/main/node_modules/fdir" xlink:title="fdir">
<polygon fill="#c40b0a" fill-opacity="0.101961" stroke="black" points="236,-634 184,-634 182,-632 182,-616 234,-616 236,-618 236,-634"/>
<polyline fill="none" stroke="black" points="234,-632 182,-632 "/>
<polyline fill="none" stroke="black" points="234,-632 234,-616 "/>
<polyline fill="none" stroke="black" points="234,-632 236,-634 "/>
<text text-anchor="start" x="201" y="-622.8" font-family="Helvetica,sans-Serif" font-size="9.00" fill="#c40b0a">fdir</text>
</a>
</g>
</g>
<!-- bin/announce.js&#45;&gt;node_modules/fdir -->
<g id="edge4" class="edge">
<title>bin/announce.js&#45;&gt;node_modules/fdir</title>
<path fill="none" stroke="#000000" stroke-opacity="0.200000" d="M106.67,-630.22C127.92,-629.12 154.95,-627.73 175.74,-626.66"/>
<polygon fill="#000000" fill-opacity="0.200000" stroke="#000000" stroke-opacity="0.200000" points="176.1,-628.74 181.98,-626.34 175.88,-624.55 176.1,-628.74"/>
</g>
<!-- path -->
<g id="node6" class="node">
<title>path</title>
<g id="a_node6"><a xlink:title="path">
<path fill="#ffffcc" stroke="grey" d="M230,-716C230,-716 188,-716 188,-716 185,-716 182,-713 182,-710 182,-710 182,-704 182,-704 182,-701 185,-698 188,-698 188,-698 230,-698 230,-698 233,-698 236,-701 236,-704 236,-704 236,-710 236,-710 236,-713 233,-716 230,-716"/>
<text text-anchor="middle" x="209" y="-704.8" font-family="Helvetica,sans-Serif" font-size="9.00" fill="grey">path</text>
</a>
</g>
</g>
<!-- bin/announce.js&#45;&gt;path -->
<g id="edge5" class="edge">
<title>bin/announce.js&#45;&gt;path</title>
<path fill="none" stroke="#000000" stroke-dasharray="5,2" stroke-opacity="0.200000" d="M83.86,-641.1C96.68,-651.12 117.48,-667.94 134,-684 137.84,-687.73 137.37,-690.31 142,-693 152.17,-698.91 164.51,-702.34 175.76,-704.32"/>
<polygon fill="#000000" fill-opacity="0.200000" stroke="#000000" stroke-opacity="0.200000" points="175.63,-706.43 181.88,-705.28 176.28,-702.28 175.63,-706.43"/>
</g>
<!-- node_modules/please&#45;upgrade&#45;node -->
<g id="node7" class="node">
<title>node_modules/please&#45;upgrade&#45;node</title>
<g id="a_node7"><a xlink:href="https://github.com/twyr/announce/blob/main/node_modules/please-upgrade-node" xlink:title="please&#45;upgrade&#45;node">
<polygon fill="#c40b0a" fill-opacity="0.101961" stroke="black" points="265,-664 155,-664 153,-662 153,-646 263,-646 265,-648 265,-664"/>
<polyline fill="none" stroke="black" points="263,-662 153,-662 "/>
<polyline fill="none" stroke="black" points="263,-662 263,-646 "/>
<polyline fill="none" stroke="black" points="263,-662 265,-664 "/>
<text text-anchor="start" x="161" y="-652.8" font-family="Helvetica,sans-Serif" font-size="9.00" fill="#c40b0a">please&#45;upgrade&#45;node</text>
</a>
</g>
</g>
<!-- bin/announce.js&#45;&gt;node_modules/please&#45;upgrade&#45;node -->
<g id="edge6" class="edge">
<title>bin/announce.js&#45;&gt;node_modules/please&#45;upgrade&#45;node</title>
<path fill="none" stroke="#000000" stroke-opacity="0.200000" d="M106.67,-637.86C119.41,-640.02 134.22,-642.52 148.52,-644.94"/>
<polygon fill="#000000" fill-opacity="0.200000" stroke="#000000" stroke-opacity="0.200000" points="148.35,-647.04 154.61,-645.97 149.05,-642.9 148.35,-647.04"/>
</g>
<!-- commands/prepare&#45;command.js -->
<g id="node8" class="node">
<title>commands/prepare&#45;command.js</title>
<g id="a_node8"><a xlink:href="https://github.com/twyr/announce/blob/main/commands/prepare-command.js" xlink:title="prepare&#45;command.js">
<path fill="#ffffcc" stroke="black" d="M120,-424C120,-424 22,-424 22,-424 19,-424 16,-421 16,-418 16,-418 16,-412 16,-412 16,-409 19,-406 22,-406 22,-406 120,-406 120,-406 123,-406 126,-409 126,-412 126,-412 126,-418 126,-418 126,-421 123,-424 120,-424"/>
<text text-anchor="start" x="24" y="-412.8" font-family="Helvetica,sans-Serif" font-size="9.00">prepare&#45;command.js</text>
</a>
</g>
</g>
<!-- commands/prepare&#45;command.js&#45;&gt;node_modules/commander -->
<g id="edge7" class="edge">
<title>commands/prepare&#45;command.js&#45;&gt;node_modules/commander</title>
<path fill="none" stroke="#000000" stroke-opacity="0.200000" d="M126.02,-423.19C128.98,-425.07 131.69,-427.31 134,-430 147.1,-445.21 128.79,-504.88 142,-520 148.47,-527.4 157.75,-531.57 167.32,-533.82"/>
<polygon fill="#000000" fill-opacity="0.200000" stroke="#000000" stroke-opacity="0.200000" points="167.01,-535.9 173.3,-534.99 167.81,-531.78 167.01,-535.9"/>
</g>
<!-- commands/prepare&#45;command.js&#45;&gt;node_modules/fdir -->
<g id="edge8" class="edge">
<title>commands/prepare&#45;command.js&#45;&gt;node_modules/fdir</title>
<path fill="none" stroke="#000000" stroke-opacity="0.200000" d="M126.16,-423.07C129.09,-424.98 131.75,-427.26 134,-430 146.73,-445.45 129.17,-594.63 142,-610 150.22,-619.84 163.43,-624.02 175.88,-625.57"/>
<polygon fill="#000000" fill-opacity="0.200000" stroke="#000000" stroke-opacity="0.200000" points="175.73,-627.67 181.9,-626.14 176.12,-623.49 175.73,-627.67"/>
</g>
<!-- commands/prepare&#45;command.js&#45;&gt;path -->
<g id="edge12" class="edge">
<title>commands/prepare&#45;command.js&#45;&gt;path</title>
<path fill="none" stroke="#000000" stroke-dasharray="5,2" stroke-opacity="0.200000" d="M126.21,-423.04C129.12,-424.95 131.77,-427.25 134,-430 152.43,-452.7 123.25,-670.57 142,-693 150.2,-702.81 163.4,-706.8 175.85,-708.15"/>
<polygon fill="#000000" fill-opacity="0.200000" stroke="#000000" stroke-opacity="0.200000" points="175.74,-710.25 181.88,-708.61 176.06,-706.06 175.74,-710.25"/>
</g>
<!-- fs/promises -->
<g id="node9" class="node">
<title>fs/promises</title>
<g id="a_node9"><a xlink:title="promises">
<path fill="#ffffcc" stroke="grey" d="M231.5,-34C231.5,-34 186.5,-34 186.5,-34 183.5,-34 180.5,-31 180.5,-28 180.5,-28 180.5,-22 180.5,-22 180.5,-19 183.5,-16 186.5,-16 186.5,-16 231.5,-16 231.5,-16 234.5,-16 237.5,-19 237.5,-22 237.5,-22 237.5,-28 237.5,-28 237.5,-31 234.5,-34 231.5,-34"/>
<text text-anchor="start" x="188.5" y="-22.8" font-family="Helvetica,sans-Serif" font-size="9.00" fill="grey">promises</text>
</a>
</g>
</g>
<!-- commands/prepare&#45;command.js&#45;&gt;fs/promises -->
<g id="edge9" class="edge">
<title>commands/prepare&#45;command.js&#45;&gt;fs/promises</title>
<path fill="none" stroke="#000000" stroke-dasharray="5,2" stroke-opacity="0.200000" d="M126.23,-406.98C129.14,-405.06 131.78,-402.76 134,-400 145.69,-385.51 132.67,-81.11 142,-65 149.39,-52.23 162.64,-43.04 175.34,-36.72"/>
<polygon fill="#000000" fill-opacity="0.200000" stroke="#000000" stroke-opacity="0.200000" points="176.57,-38.47 181.11,-34.02 174.78,-34.66 176.57,-38.47"/>
</g>
<!-- node_modules/gitignore&#45;parser -->
<g id="node10" class="node">
<title>node_modules/gitignore&#45;parser</title>
<g id="a_node10"><a xlink:href="https://github.com/twyr/announce/blob/main/node_modules/gitignore-parser" xlink:title="gitignore&#45;parser">
<polygon fill="#c40b0a" fill-opacity="0.101961" stroke="black" points="253.5,-424 166.5,-424 164.5,-422 164.5,-406 251.5,-406 253.5,-408 253.5,-424"/>
<polyline fill="none" stroke="black" points="251.5,-422 164.5,-422 "/>
<polyline fill="none" stroke="black" points="251.5,-422 251.5,-406 "/>
<polyline fill="none" stroke="black" points="251.5,-422 253.5,-424 "/>
<text text-anchor="start" x="172.5" y="-412.8" font-family="Helvetica,sans-Serif" font-size="9.00" fill="#c40b0a">gitignore&#45;parser</text>
</a>
</g>
</g>
<!-- commands/prepare&#45;command.js&#45;&gt;node_modules/gitignore&#45;parser -->
<g id="edge10" class="edge">
<title>commands/prepare&#45;command.js&#45;&gt;node_modules/gitignore&#45;parser</title>
<path fill="none" stroke="#000000" stroke-opacity="0.200000" d="M126.14,-415C136.67,-415 147.66,-415 158.04,-415"/>
<polygon fill="#000000" fill-opacity="0.200000" stroke="#000000" stroke-opacity="0.200000" points="158.08,-417.1 164.08,-415 158.08,-412.9 158.08,-417.1"/>
</g>
<!-- node_modules/listr -->
<g id="node11" class="node">
<title>node_modules/listr</title>
<g id="a_node11"><a xlink:href="https://github.com/twyr/announce/blob/main/node_modules/listr" xlink:title="listr">
<polygon fill="#c40b0a" fill-opacity="0.101961" stroke="black" points="236,-394 184,-394 182,-392 182,-376 234,-376 236,-378 236,-394"/>
<polyline fill="none" stroke="black" points="234,-392 182,-392 "/>
<polyline fill="none" stroke="black" points="234,-392 234,-376 "/>
<polyline fill="none" stroke="black" points="234,-392 236,-394 "/>
<text text-anchor="start" x="200.5" y="-382.8" font-family="Helvetica,sans-Serif" font-size="9.00" fill="#c40b0a">listr</text>
</a>
</g>
</g>
<!-- commands/prepare&#45;command.js&#45;&gt;node_modules/listr -->
<g id="edge11" class="edge">
<title>commands/prepare&#45;command.js&#45;&gt;node_modules/listr</title>
<path fill="none" stroke="#000000" stroke-opacity="0.200000" d="M112.8,-406C132.91,-401.56 156.81,-396.29 175.63,-392.14"/>
<polygon fill="#000000" fill-opacity="0.200000" stroke="#000000" stroke-opacity="0.200000" points="176.4,-394.12 181.81,-390.78 175.5,-390.02 176.4,-394.12"/>
</g>
<!-- node_modules/replace&#45;in&#45;file -->
<g id="node12" class="node">
<title>node_modules/replace&#45;in&#45;file</title>
<g id="a_node12"><a xlink:href="https://github.com/twyr/announce/blob/main/node_modules/replace-in-file" xlink:title="replace&#45;in&#45;file">
<polygon fill="#c40b0a" fill-opacity="0.101961" stroke="black" points="247.5,-364 172.5,-364 170.5,-362 170.5,-346 245.5,-346 247.5,-348 247.5,-364"/>
<polyline fill="none" stroke="black" points="245.5,-362 170.5,-362 "/>
<polyline fill="none" stroke="black" points="245.5,-362 245.5,-346 "/>
<polyline fill="none" stroke="black" points="245.5,-362 247.5,-364 "/>
<text text-anchor="start" x="178.5" y="-352.8" font-family="Helvetica,sans-Serif" font-size="9.00" fill="#c40b0a">replace&#45;in&#45;file</text>
</a>
</g>
</g>
<!-- commands/prepare&#45;command.js&#45;&gt;node_modules/replace&#45;in&#45;file -->
<g id="edge13" class="edge">
<title>commands/prepare&#45;command.js&#45;&gt;node_modules/replace&#45;in&#45;file</title>
<path fill="none" stroke="#000000" stroke-opacity="0.200000" d="M126.09,-406C128.95,-404.31 131.62,-402.32 134,-400 143.87,-390.36 132.06,-379.57 142,-370 148.07,-364.15 155.92,-360.4 164.07,-358.04"/>
<polygon fill="#000000" fill-opacity="0.200000" stroke="#000000" stroke-opacity="0.200000" points="165.02,-359.97 170.34,-356.49 164.01,-355.89 165.02,-359.97"/>
</g>
<!-- node_modules/semver -->
<g id="node13" class="node">
<title>node_modules/semver</title>
<g id="a_node13"><a xlink:href="https://github.com/twyr/announce/blob/main/node_modules/semver" xlink:title="semver">
<polygon fill="#c40b0a" fill-opacity="0.101961" stroke="black" points="236,-334 184,-334 182,-332 182,-316 234,-316 236,-318 236,-334"/>
<polyline fill="none" stroke="black" points="234,-332 182,-332 "/>
<polyline fill="none" stroke="black" points="234,-332 234,-316 "/>
<polyline fill="none" stroke="black" points="234,-332 236,-334 "/>
<text text-anchor="start" x="192" y="-322.8" font-family="Helvetica,sans-Serif" font-size="9.00" fill="#c40b0a">semver</text>
</a>
</g>
</g>
<!-- commands/prepare&#45;command.js&#45;&gt;node_modules/semver -->
<g id="edge14" class="edge">
<title>commands/prepare&#45;command.js&#45;&gt;node_modules/semver</title>
<path fill="none" stroke="#000000" stroke-opacity="0.200000" d="M126.17,-406.52C129.05,-404.7 131.7,-402.55 134,-400 152,-380.01 123.86,-359.87 142,-340 150.5,-330.69 163.47,-326.55 175.67,-324.88"/>
<polygon fill="#000000" fill-opacity="0.200000" stroke="#000000" stroke-opacity="0.200000" points="176.2,-326.93 181.95,-324.22 175.76,-322.76 176.2,-326.93"/>
</g>
<!-- commands/publish&#45;command.js -->
<g id="node14" class="node">
<title>commands/publish&#45;command.js</title>
<g id="a_node14"><a xlink:href="https://github.com/twyr/announce/blob/main/commands/publish-command.js" xlink:title="publish&#45;command.js">
<path fill="#ffffcc" stroke="black" d="M119,-454C119,-454 23,-454 23,-454 20,-454 17,-451 17,-448 17,-448 17,-442 17,-442 17,-439 20,-436 23,-436 23,-436 119,-436 119,-436 122,-436 125,-439 125,-442 125,-442 125,-448 125,-448 125,-451 122,-454 119,-454"/>
<text text-anchor="start" x="25" y="-442.8" font-family="Helvetica,sans-Serif" font-size="9.00">publish&#45;command.js</text>
</a>
</g>
</g>
<!-- commands/publish&#45;command.js&#45;&gt;node_modules/commander -->
<g id="edge15" class="edge">
<title>commands/publish&#45;command.js&#45;&gt;node_modules/commander</title>
<path fill="none" stroke="#000000" stroke-opacity="0.200000" d="M77.71,-454.02C88.31,-469.99 112.66,-503.14 142,-520 149.7,-524.42 158.6,-527.54 167.33,-529.74"/>
<polygon fill="#000000" fill-opacity="0.200000" stroke="#000000" stroke-opacity="0.200000" points="167.01,-531.82 173.33,-531.12 167.95,-527.73 167.01,-531.82"/>
</g>
<!-- commands/publish&#45;command.js&#45;&gt;path -->
<g id="edge20" class="edge">
<title>commands/publish&#45;command.js&#45;&gt;path</title>
<path fill="none" stroke="#000000" stroke-dasharray="5,2" stroke-opacity="0.200000" d="M76.36,-454.16C87.95,-478.93 119.59,-549.62 134,-612 138.07,-629.62 129.94,-679.52 142,-693 150.38,-702.36 163.33,-706.34 175.55,-707.8"/>
<polygon fill="#000000" fill-opacity="0.200000" stroke="#000000" stroke-opacity="0.200000" points="175.68,-709.92 181.84,-708.34 176.05,-705.73 175.68,-709.92"/>
</g>
<!-- commands/publish&#45;command.js&#45;&gt;node_modules/listr -->
<g id="edge19" class="edge">
<title>commands/publish&#45;command.js&#45;&gt;node_modules/listr</title>
<path fill="none" stroke="#000000" stroke-opacity="0.200000" d="M125.22,-436.5C128.42,-434.7 131.39,-432.55 134,-430 143.87,-420.36 132.06,-409.57 142,-400 150.94,-391.39 163.73,-387.33 175.68,-385.53"/>
<polygon fill="#000000" fill-opacity="0.200000" stroke="#000000" stroke-opacity="0.200000" points="176.12,-387.6 181.82,-384.79 175.61,-383.43 176.12,-387.6"/>
</g>
<!-- node_modules/es6&#45;dynamic&#45;template -->
<g id="node15" class="node">
<title>node_modules/es6&#45;dynamic&#45;template</title>
<g id="a_node15"><a xlink:href="https://github.com/twyr/announce/blob/main/node_modules/es6-dynamic-template" xlink:title="es6&#45;dynamic&#45;template">
<polygon fill="#c40b0a" fill-opacity="0.101961" stroke="black" points="268,-514 152,-514 150,-512 150,-496 266,-496 268,-498 268,-514"/>
<polyline fill="none" stroke="black" points="266,-512 150,-512 "/>
<polyline fill="none" stroke="black" points="266,-512 266,-496 "/>
<polyline fill="none" stroke="black" points="266,-512 268,-514 "/>
<text text-anchor="start" x="158" y="-502.8" font-family="Helvetica,sans-Serif" font-size="9.00" fill="#c40b0a">es6&#45;dynamic&#45;template</text>
</a>
</g>
</g>
<!-- commands/publish&#45;command.js&#45;&gt;node_modules/es6&#45;dynamic&#45;template -->
<g id="edge16" class="edge">
<title>commands/publish&#45;command.js&#45;&gt;node_modules/es6&#45;dynamic&#45;template</title>
<path fill="none" stroke="#000000" stroke-opacity="0.200000" d="M83.67,-454.33C97.02,-464.55 119.89,-480.72 142,-490 145.56,-491.49 149.28,-492.85 153.08,-494.08"/>
<polygon fill="#000000" fill-opacity="0.200000" stroke="#000000" stroke-opacity="0.200000" points="152.74,-496.17 159.09,-495.91 153.97,-492.15 152.74,-496.17"/>
</g>
<!-- node_modules/execa -->
<g id="node16" class="node">
<title>node_modules/execa</title>
<g id="a_node16"><a xlink:href="https://github.com/twyr/announce/blob/main/node_modules/execa" xlink:title="execa">
<polygon fill="#c40b0a" fill-opacity="0.101961" stroke="black" points="236,-574 184,-574 182,-572 182,-556 234,-556 236,-558 236,-574"/>
<polyline fill="none" stroke="black" points="234,-572 182,-572 "/>
<polyline fill="none" stroke="black" points="234,-572 234,-556 "/>
<polyline fill="none" stroke="black" points="234,-572 236,-574 "/>
<text text-anchor="start" x="195.5" y="-562.8" font-family="Helvetica,sans-Serif" font-size="9.00" fill="#c40b0a">execa</text>
</a>
</g>
</g>
<!-- commands/publish&#45;command.js&#45;&gt;node_modules/execa -->
<g id="edge17" class="edge">
<title>commands/publish&#45;command.js&#45;&gt;node_modules/execa</title>
<path fill="none" stroke="#000000" stroke-opacity="0.200000" d="M75.4,-454.31C83.49,-475.04 105.91,-525.15 142,-550 151.8,-556.75 164.17,-560.51 175.55,-562.58"/>
<polygon fill="#000000" fill-opacity="0.200000" stroke="#000000" stroke-opacity="0.200000" points="175.49,-564.7 181.74,-563.57 176.15,-560.55 175.49,-564.7"/>
</g>
<!-- node_modules/hosted&#45;git&#45;info -->
<g id="node17" class="node">
<title>node_modules/hosted&#45;git&#45;info</title>
<g id="a_node17"><a xlink:href="https://github.com/twyr/announce/blob/main/node_modules/hosted-git-info" xlink:title="hosted&#45;git&#45;info">
<polygon fill="#c40b0a" fill-opacity="0.101961" stroke="black" points="250,-454 170,-454 168,-452 168,-436 248,-436 250,-438 250,-454"/>
<polyline fill="none" stroke="black" points="248,-452 168,-452 "/>
<polyline fill="none" stroke="black" points="248,-452 248,-436 "/>
<polyline fill="none" stroke="black" points="248,-452 250,-454 "/>
<text text-anchor="start" x="176" y="-442.8" font-family="Helvetica,sans-Serif" font-size="9.00" fill="#c40b0a">hosted&#45;git&#45;info</text>
</a>
</g>
</g>
<!-- commands/publish&#45;command.js&#45;&gt;node_modules/hosted&#45;git&#45;info -->
<g id="edge18" class="edge">
<title>commands/publish&#45;command.js&#45;&gt;node_modules/hosted&#45;git&#45;info</title>
<path fill="none" stroke="#000000" stroke-opacity="0.200000" d="M125.36,-445C137.4,-445 150.08,-445 161.8,-445"/>
<polygon fill="#000000" fill-opacity="0.200000" stroke="#000000" stroke-opacity="0.200000" points="161.83,-447.1 167.83,-445 161.83,-442.9 161.83,-447.1"/>
</g>
<!-- node_modules/simple&#45;git -->
<g id="node18" class="node">
<title>node_modules/simple&#45;git</title>
<g id="a_node18"><a xlink:href="https://github.com/twyr/announce/blob/main/node_modules/simple-git" xlink:title="simple&#45;git">
<polygon fill="#c40b0a" fill-opacity="0.101961" stroke="black" points="239.5,-484 180.5,-484 178.5,-482 178.5,-466 237.5,-466 239.5,-468 239.5,-484"/>
<polyline fill="none" stroke="black" points="237.5,-482 178.5,-482 "/>
<polyline fill="none" stroke="black" points="237.5,-482 237.5,-466 "/>
<polyline fill="none" stroke="black" points="237.5,-482 239.5,-484 "/>
<text text-anchor="start" x="186.5" y="-472.8" font-family="Helvetica,sans-Serif" font-size="9.00" fill="#c40b0a">simple&#45;git</text>
</a>
</g>
</g>
<!-- commands/publish&#45;command.js&#45;&gt;node_modules/simple&#45;git -->
<g id="edge21" class="edge">
<title>commands/publish&#45;command.js&#45;&gt;node_modules/simple&#45;git</title>
<path fill="none" stroke="#000000" stroke-opacity="0.200000" d="M112.8,-454C131.78,-458.19 154.15,-463.12 172.43,-467.15"/>
<polygon fill="#000000" fill-opacity="0.200000" stroke="#000000" stroke-opacity="0.200000" points="172.15,-469.24 178.46,-468.48 173.05,-465.14 172.15,-469.24"/>
</g>
<!-- commands/release&#45;command.js -->
<g id="node19" class="node">
<title>commands/release&#45;command.js</title>
<g id="a_node19"><a xlink:href="https://github.com/twyr/announce/blob/main/commands/release-command.js" xlink:title="release&#45;command.js">
<path fill="#ffffcc" stroke="black" d="M118.5,-394C118.5,-394 23.5,-394 23.5,-394 20.5,-394 17.5,-391 17.5,-388 17.5,-388 17.5,-382 17.5,-382 17.5,-379 20.5,-376 23.5,-376 23.5,-376 118.5,-376 118.5,-376 121.5,-376 124.5,-379 124.5,-382 124.5,-382 124.5,-388 124.5,-388 124.5,-391 121.5,-394 118.5,-394"/>
<text text-anchor="start" x="25.5" y="-382.8" font-family="Helvetica,sans-Serif" font-size="9.00">release&#45;command.js</text>
</a>
</g>
</g>
<!-- commands/release&#45;command.js&#45;&gt;node_modules/commander -->
<g id="edge22" class="edge">
<title>commands/release&#45;command.js&#45;&gt;node_modules/commander</title>
<path fill="none" stroke="#000000" stroke-opacity="0.200000" d="M124.69,-392.27C128.19,-394.32 131.36,-396.87 134,-400 151.22,-420.44 124.64,-499.68 142,-520 148.38,-527.47 157.64,-531.66 167.21,-533.92"/>
<polygon fill="#000000" fill-opacity="0.200000" stroke="#000000" stroke-opacity="0.200000" points="166.9,-536 173.19,-535.09 167.7,-531.88 166.9,-536"/>
</g>
<!-- commands/release&#45;command.js&#45;&gt;path -->
<g id="edge32" class="edge">
<title>commands/release&#45;command.js&#45;&gt;path</title>
<path fill="none" stroke="#000000" stroke-dasharray="5,2" stroke-opacity="0.200000" d="M124.55,-391.99C128.13,-394.1 131.35,-396.73 134,-400 154.49,-425.32 121.16,-667.98 142,-693 150.18,-702.82 163.38,-706.81 175.84,-708.16"/>
<polygon fill="#000000" fill-opacity="0.200000" stroke="#000000" stroke-opacity="0.200000" points="175.72,-710.26 181.87,-708.62 176.04,-706.07 175.72,-710.26"/>
</g>
<!-- commands/release&#45;command.js&#45;&gt;fs/promises -->
<g id="edge26" class="edge">
<title>commands/release&#45;command.js&#45;&gt;fs/promises</title>
<path fill="none" stroke="#000000" stroke-dasharray="5,2" stroke-opacity="0.200000" d="M75.05,-375.84C85.24,-344.91 118.31,-241.25 134,-153 137.44,-133.67 131.6,-81.65 142,-65 149.88,-52.39 163.33,-43.19 176.05,-36.82"/>
<polygon fill="#000000" fill-opacity="0.200000" stroke="#000000" stroke-opacity="0.200000" points="177.29,-38.56 181.81,-34.09 175.49,-34.76 177.29,-38.56"/>
</g>
<!-- commands/release&#45;command.js&#45;&gt;node_modules/listr -->
<g id="edge29" class="edge">
<title>commands/release&#45;command.js&#45;&gt;node_modules/listr</title>
<path fill="none" stroke="#000000" stroke-opacity="0.200000" d="M124.58,-385C141.72,-385 160.23,-385 175.45,-385"/>
<polygon fill="#000000" fill-opacity="0.200000" stroke="#000000" stroke-opacity="0.200000" points="175.76,-387.1 181.76,-385 175.76,-382.9 175.76,-387.1"/>
</g>
<!-- commands/release&#45;command.js&#45;&gt;node_modules/replace&#45;in&#45;file -->
<g id="edge34" class="edge">
<title>commands/release&#45;command.js&#45;&gt;node_modules/replace&#45;in&#45;file</title>
<path fill="none" stroke="#000000" stroke-opacity="0.200000" d="M112.8,-376C129.11,-372.4 147.91,-368.25 164.48,-364.6"/>
<polygon fill="#000000" fill-opacity="0.200000" stroke="#000000" stroke-opacity="0.200000" points="165.07,-366.62 170.47,-363.28 164.16,-362.52 165.07,-366.62"/>
</g>
<!-- commands/release&#45;command.js&#45;&gt;node_modules/semver -->
<g id="edge35" class="edge">
<title>commands/release&#45;command.js&#45;&gt;node_modules/semver</title>
<path fill="none" stroke="#000000" stroke-opacity="0.200000" d="M83.67,-375.67C97.02,-365.45 119.89,-349.28 142,-340 152.7,-335.51 164.96,-332.25 175.99,-329.94"/>
<polygon fill="#000000" fill-opacity="0.200000" stroke="#000000" stroke-opacity="0.200000" points="176.49,-331.99 181.97,-328.76 175.67,-327.87 176.49,-331.99"/>
</g>
<!-- commands/release&#45;command.js&#45;&gt;node_modules/es6&#45;dynamic&#45;template -->
<g id="edge25" class="edge">
<title>commands/release&#45;command.js&#45;&gt;node_modules/es6&#45;dynamic&#45;template</title>
<path fill="none" stroke="#000000" stroke-opacity="0.200000" d="M124.62,-392.33C128.13,-394.37 131.33,-396.9 134,-400 147.1,-415.21 128.79,-474.88 142,-490 142.87,-491 143.79,-491.93 144.76,-492.81"/>
<polygon fill="#000000" fill-opacity="0.200000" stroke="#000000" stroke-opacity="0.200000" points="143.89,-494.8 149.93,-496.78 146.44,-491.46 143.89,-494.8"/>
</g>
<!-- commands/release&#45;command.js&#45;&gt;node_modules/hosted&#45;git&#45;info -->
<g id="edge27" class="edge">
<title>commands/release&#45;command.js&#45;&gt;node_modules/hosted&#45;git&#45;info</title>
<path fill="none" stroke="#000000" stroke-opacity="0.200000" d="M124.64,-393.18C128.05,-395.04 131.23,-397.29 134,-400 143.87,-409.64 132.06,-420.43 142,-430 147.49,-435.29 154.43,-438.86 161.74,-441.24"/>
<polygon fill="#000000" fill-opacity="0.200000" stroke="#000000" stroke-opacity="0.200000" points="161.59,-443.38 167.94,-442.98 162.73,-439.34 161.59,-443.38"/>
</g>
<!-- commands/release&#45;command.js&#45;&gt;node_modules/simple&#45;git -->
<g id="edge36" class="edge">
<title>commands/release&#45;command.js&#45;&gt;node_modules/simple&#45;git</title>
<path fill="none" stroke="#000000" stroke-opacity="0.200000" d="M124.76,-392.63C128.19,-394.61 131.33,-397.04 134,-400 152,-419.99 123.86,-440.13 142,-460 149.69,-468.42 161.03,-472.61 172.15,-474.57"/>
<polygon fill="#000000" fill-opacity="0.200000" stroke="#000000" stroke-opacity="0.200000" points="172.05,-476.68 178.28,-475.44 172.64,-472.52 172.05,-476.68"/>
</g>
<!-- node_modules/date&#45;fns -->
<g id="node20" class="node">
<title>node_modules/date&#45;fns</title>
<g id="a_node20"><a xlink:href="https://github.com/twyr/announce/blob/main/node_modules/date-fns" xlink:title="date&#45;fns">
<polygon fill="#c40b0a" fill-opacity="0.101961" stroke="black" points="236,-274 184,-274 182,-272 182,-256 234,-256 236,-258 236,-274"/>
<polyline fill="none" stroke="black" points="234,-272 182,-272 "/>
<polyline fill="none" stroke="black" points="234,-272 234,-256 "/>
<polyline fill="none" stroke="black" points="234,-272 236,-274 "/>
<text text-anchor="start" x="190.5" y="-262.8" font-family="Helvetica,sans-Serif" font-size="9.00" fill="#c40b0a">date&#45;fns</text>
</a>
</g>
</g>
<!-- commands/release&#45;command.js&#45;&gt;node_modules/date&#45;fns -->
<g id="edge23" class="edge">
<title>commands/release&#45;command.js&#45;&gt;node_modules/date&#45;fns</title>
<path fill="none" stroke="#000000" stroke-opacity="0.200000" d="M75.4,-375.69C83.49,-354.96 105.91,-304.85 142,-280 151.8,-273.25 164.17,-269.49 175.55,-267.42"/>
<polygon fill="#000000" fill-opacity="0.200000" stroke="#000000" stroke-opacity="0.200000" points="176.15,-269.45 181.74,-266.43 175.49,-265.3 176.15,-269.45"/>
</g>
<!-- node_modules/ejs -->
<g id="node21" class="node">
<title>node_modules/ejs</title>
<g id="a_node21"><a xlink:href="https://github.com/twyr/announce/blob/main/node_modules/ejs" xlink:title="ejs">
<polygon fill="#c40b0a" fill-opacity="0.101961" stroke="black" points="236,-154 184,-154 182,-152 182,-136 234,-136 236,-138 236,-154"/>
<polyline fill="none" stroke="black" points="234,-152 182,-152 "/>
<polyline fill="none" stroke="black" points="234,-152 234,-136 "/>
<polyline fill="none" stroke="black" points="234,-152 236,-154 "/>
<text text-anchor="start" x="202.5" y="-142.8" font-family="Helvetica,sans-Serif" font-size="9.00" fill="#c40b0a">ejs</text>
</a>
</g>
</g>
<!-- commands/release&#45;command.js&#45;&gt;node_modules/ejs -->
<g id="edge24" class="edge">
<title>commands/release&#45;command.js&#45;&gt;node_modules/ejs</title>
<path fill="none" stroke="#000000" stroke-opacity="0.200000" d="M71.84,-375.6C71.8,-341.14 76.52,-220.55 142,-160 151.11,-151.58 163.93,-147.55 175.86,-145.73"/>
<polygon fill="#000000" fill-opacity="0.200000" stroke="#000000" stroke-opacity="0.200000" points="176.29,-147.79 181.99,-144.96 175.77,-143.62 176.29,-147.79"/>
</g>
<!-- node_modules/humanize&#45;string -->
<g id="node22" class="node">
<title>node_modules/humanize&#45;string</title>
<g id="a_node22"><a xlink:href="https://github.com/twyr/announce/blob/main/node_modules/humanize-string" xlink:title="humanize&#45;string">
<polygon fill="#c40b0a" fill-opacity="0.101961" stroke="black" points="254,-304 166,-304 164,-302 164,-286 252,-286 254,-288 254,-304"/>
<polyline fill="none" stroke="black" points="252,-302 164,-302 "/>
<polyline fill="none" stroke="black" points="252,-302 252,-286 "/>
<polyline fill="none" stroke="black" points="252,-302 254,-304 "/>
<text text-anchor="start" x="172" y="-292.8" font-family="Helvetica,sans-Serif" font-size="9.00" fill="#c40b0a">humanize&#45;string</text>
</a>
</g>
</g>
<!-- commands/release&#45;command.js&#45;&gt;node_modules/humanize&#45;string -->
<g id="edge28" class="edge">
<title>commands/release&#45;command.js&#45;&gt;node_modules/humanize&#45;string</title>
<path fill="none" stroke="#000000" stroke-opacity="0.200000" d="M77.71,-375.98C88.31,-360.01 112.66,-326.86 142,-310 146.86,-307.2 152.21,-304.93 157.68,-303.08"/>
<polygon fill="#000000" fill-opacity="0.200000" stroke="#000000" stroke-opacity="0.200000" points="158.55,-305.01 163.66,-301.23 157.31,-301 158.55,-305.01"/>
</g>
<!-- node_modules/md&#45;to&#45;pdf -->
<g id="node23" class="node">
<title>node_modules/md&#45;to&#45;pdf</title>
<g id="a_node23"><a xlink:href="https://github.com/twyr/announce/blob/main/node_modules/md-to-pdf" xlink:title="md&#45;to&#45;pdf">
<polygon fill="#c40b0a" fill-opacity="0.101961" stroke="black" points="240,-184 180,-184 178,-182 178,-166 238,-166 240,-168 240,-184"/>
<polyline fill="none" stroke="black" points="238,-182 178,-182 "/>
<polyline fill="none" stroke="black" points="238,-182 238,-166 "/>
<polyline fill="none" stroke="black" points="238,-182 240,-184 "/>
<text text-anchor="start" x="186" y="-172.8" font-family="Helvetica,sans-Serif" font-size="9.00" fill="#c40b0a">md&#45;to&#45;pdf</text>
</a>
</g>
</g>
<!-- commands/release&#45;command.js&#45;&gt;node_modules/md&#45;to&#45;pdf -->
<g id="edge30" class="edge">
<title>commands/release&#45;command.js&#45;&gt;node_modules/md&#45;to&#45;pdf</title>
<path fill="none" stroke="#000000" stroke-opacity="0.200000" d="M72.33,-375.98C73.99,-344.92 83.84,-241.51 142,-190 150.16,-182.77 161.08,-178.81 171.68,-176.7"/>
<polygon fill="#000000" fill-opacity="0.200000" stroke="#000000" stroke-opacity="0.200000" points="172.29,-178.73 177.86,-175.66 171.6,-174.59 172.29,-178.73"/>
</g>
<!-- node_modules/mkdirp -->
<g id="node24" class="node">
<title>node_modules/mkdirp</title>
<g id="a_node24"><a xlink:href="https://github.com/twyr/announce/blob/main/node_modules/mkdirp" xlink:title="mkdirp">
<polygon fill="#c40b0a" fill-opacity="0.101961" stroke="black" points="236,-244 184,-244 182,-242 182,-226 234,-226 236,-228 236,-244"/>
<polyline fill="none" stroke="black" points="234,-242 182,-242 "/>
<polyline fill="none" stroke="black" points="234,-242 234,-226 "/>
<polyline fill="none" stroke="black" points="234,-242 236,-244 "/>
<text text-anchor="start" x="192.5" y="-232.8" font-family="Helvetica,sans-Serif" font-size="9.00" fill="#c40b0a">mkdirp</text>
</a>
</g>
</g>
<!-- commands/release&#45;command.js&#45;&gt;node_modules/mkdirp -->
<g id="edge31" class="edge">
<title>commands/release&#45;command.js&#45;&gt;node_modules/mkdirp</title>
<path fill="none" stroke="#000000" stroke-opacity="0.200000" d="M73.96,-375.73C79.68,-351.06 98.76,-283.42 142,-250 151.58,-242.6 164.14,-238.72 175.73,-236.74"/>
<polygon fill="#000000" fill-opacity="0.200000" stroke="#000000" stroke-opacity="0.200000" points="176.05,-238.81 181.68,-235.86 175.44,-234.66 176.05,-238.81"/>
</g>
<!-- node_modules/prepend&#45;file -->
<g id="node25" class="node">
<title>node_modules/prepend&#45;file</title>
<g id="a_node25"><a xlink:href="https://github.com/twyr/announce/blob/main/node_modules/prepend-file" xlink:title="prepend&#45;file">
<polygon fill="#c40b0a" fill-opacity="0.101961" stroke="black" points="244.5,-214 175.5,-214 173.5,-212 173.5,-196 242.5,-196 244.5,-198 244.5,-214"/>
<polyline fill="none" stroke="black" points="242.5,-212 173.5,-212 "/>
<polyline fill="none" stroke="black" points="242.5,-212 242.5,-196 "/>
<polyline fill="none" stroke="black" points="242.5,-212 244.5,-214 "/>
<text text-anchor="start" x="181.5" y="-202.8" font-family="Helvetica,sans-Serif" font-size="9.00" fill="#c40b0a">prepend&#45;file</text>
</a>
</g>
</g>
<!-- commands/release&#45;command.js&#45;&gt;node_modules/prepend&#45;file -->
<g id="edge33" class="edge">
<title>commands/release&#45;command.js&#45;&gt;node_modules/prepend&#45;file</title>
<path fill="none" stroke="#000000" stroke-opacity="0.200000" d="M73.01,-375.8C76.6,-347.7 91.4,-262.32 142,-220 149.17,-214 158.26,-210.28 167.38,-208.01"/>
<polygon fill="#000000" fill-opacity="0.200000" stroke="#000000" stroke-opacity="0.200000" points="167.95,-210.03 173.36,-206.71 167.06,-205.93 167.95,-210.03"/>
</g>
<!-- git_host_utilities/github.js -->
<g id="node26" class="node">
<title>git_host_utilities/github.js</title>
<g id="a_node26"><a xlink:href="https://github.com/twyr/announce/blob/main/git_host_utilities/github.js" xlink:title="github.js">
<path fill="#ffffcc" stroke="black" d="M93,-124C93,-124 49,-124 49,-124 46,-124 43,-121 43,-118 43,-118 43,-112 43,-112 43,-109 46,-106 49,-106 49,-106 93,-106 93,-106 96,-106 99,-109 99,-112 99,-112 99,-118 99,-118 99,-121 96,-124 93,-124"/>
<text text-anchor="start" x="51" y="-112.8" font-family="Helvetica,sans-Serif" font-size="9.00">github.js</text>
</a>
</g>
</g>
<!-- node_modules/octonode -->
<g id="node27" class="node">
<title>node_modules/octonode</title>
<g id="a_node27"><a xlink:href="https://github.com/twyr/announce/blob/main/node_modules/octonode" xlink:title="octonode">
<polygon fill="#c40b0a" fill-opacity="0.101961" stroke="black" points="238.5,-124 181.5,-124 179.5,-122 179.5,-106 236.5,-106 238.5,-108 238.5,-124"/>
<polyline fill="none" stroke="black" points="236.5,-122 179.5,-122 "/>
<polyline fill="none" stroke="black" points="236.5,-122 236.5,-106 "/>
<polyline fill="none" stroke="black" points="236.5,-122 238.5,-124 "/>
<text text-anchor="start" x="187.5" y="-112.8" font-family="Helvetica,sans-Serif" font-size="9.00" fill="#c40b0a">octonode</text>
</a>
</g>
</g>
<!-- git_host_utilities/github.js&#45;&gt;node_modules/octonode -->
<g id="edge37" class="edge">
<title>git_host_utilities/github.js&#45;&gt;node_modules/octonode</title>
<path fill="none" stroke="#000000" stroke-opacity="0.200000" d="M99.19,-115C120.54,-115 150.4,-115 173.44,-115"/>
<polygon fill="#000000" fill-opacity="0.200000" stroke="#000000" stroke-opacity="0.200000" points="173.45,-117.1 179.45,-115 173.45,-112.9 173.45,-117.1"/>
</g>
<!-- git_host_utilities/gitlab.js -->
<g id="node28" class="node">
<title>git_host_utilities/gitlab.js</title>
<g id="a_node28"><a xlink:href="https://github.com/twyr/announce/blob/main/git_host_utilities/gitlab.js" xlink:title="gitlab.js">
<path fill="#ffffcc" stroke="black" d="M92,-94C92,-94 50,-94 50,-94 47,-94 44,-91 44,-88 44,-88 44,-82 44,-82 44,-79 47,-76 50,-76 50,-76 92,-76 92,-76 95,-76 98,-79 98,-82 98,-82 98,-88 98,-88 98,-91 95,-94 92,-94"/>
<text text-anchor="start" x="53" y="-82.8" font-family="Helvetica,sans-Serif" font-size="9.00">gitlab.js</text>
</a>
</g>
</g>
<!-- node_modules/@gitbeaker -->
<g id="node29" class="node">
<title>node_modules/@gitbeaker</title>
<g id="a_node29"><a xlink:href="https://github.com/twyr/announce/blob/main/node_modules/@gitbeaker" xlink:title="@gitbeaker">
<polygon fill="#c40b0a" fill-opacity="0.101961" stroke="black" points="243,-94 177,-94 175,-92 175,-76 241,-76 243,-78 243,-94"/>
<polyline fill="none" stroke="black" points="241,-92 175,-92 "/>
<polyline fill="none" stroke="black" points="241,-92 241,-76 "/>
<polyline fill="none" stroke="black" points="241,-92 243,-94 "/>
<text text-anchor="start" x="183" y="-82.8" font-family="Helvetica,sans-Serif" font-size="9.00" fill="#c40b0a">@gitbeaker</text>
</a>
</g>
</g>
<!-- git_host_utilities/gitlab.js&#45;&gt;node_modules/@gitbeaker -->
<g id="edge38" class="edge">
<title>git_host_utilities/gitlab.js&#45;&gt;node_modules/@gitbeaker</title>
<path fill="none" stroke="#000000" stroke-opacity="0.200000" d="M98.22,-85C118.12,-85 145.81,-85 168.4,-85"/>
<polygon fill="#000000" fill-opacity="0.200000" stroke="#000000" stroke-opacity="0.200000" points="168.62,-87.1 174.62,-85 168.62,-82.9 168.62,-87.1"/>
</g>
<!-- index.js -->
<g id="node30" class="node">
<title>index.js</title>
<g id="a_node30"><a xlink:href="https://github.com/twyr/announce/blob/main/index.js" xlink:title="index.js">
<path fill="#ffffcc" stroke="black" d="M92,-708C92,-708 50,-708 50,-708 47,-708 44,-705 44,-702 44,-702 44,-696 44,-696 44,-693 47,-690 50,-690 50,-690 92,-690 92,-690 95,-690 98,-693 98,-696 98,-696 98,-702 98,-702 98,-705 95,-708 92,-708"/>
<text text-anchor="middle" x="71" y="-696.8" font-family="Helvetica,sans-Serif" font-size="9.00">index.js</text>
</a>
</g>
</g>
<!-- index.js&#45;&gt;package.json -->
<g id="edge39" class="edge">
<title>index.js&#45;&gt;package.json</title>
<path fill="none" stroke="#000000" stroke-width="2" stroke-opacity="0.200000" d="M97.75,-708.1C110.9,-712.59 127.21,-717.9 142,-722 149.25,-724.01 157.01,-725.96 164.56,-727.74"/>
<polygon fill="#000000" fill-opacity="0.200000" stroke="#000000" stroke-width="2" stroke-opacity="0.200000" points="164.53,-729.89 170.85,-729.2 165.48,-725.8 164.53,-729.89"/>
</g>
<!-- index.js&#45;&gt;node_modules/fdir -->
<g id="edge40" class="edge">
<title>index.js&#45;&gt;node_modules/fdir</title>
<path fill="none" stroke="#000000" stroke-opacity="0.200000" d="M98.15,-692.4C110.65,-687.99 124.85,-680.93 134,-670 142.86,-659.42 132.06,-649.57 142,-640 150.94,-631.39 163.73,-627.33 175.68,-625.53"/>
<polygon fill="#000000" fill-opacity="0.200000" stroke="#000000" stroke-opacity="0.200000" points="176.12,-627.6 181.82,-624.79 175.61,-623.43 176.12,-627.6"/>
</g>
<!-- index.js&#45;&gt;path -->
<g id="edge41" class="edge">
<title>index.js&#45;&gt;path</title>
<path fill="none" stroke="#000000" stroke-dasharray="5,2" stroke-opacity="0.200000" d="M98.22,-700.54C120.33,-701.84 152.05,-703.71 175.72,-705.1"/>
<polygon fill="#000000" fill-opacity="0.200000" stroke="#000000" stroke-opacity="0.200000" points="175.75,-707.21 181.86,-705.46 175.99,-703.01 175.75,-707.21"/>
</g>
<!-- index.js&#45;&gt;node_modules/please&#45;upgrade&#45;node -->
<g id="edge42" class="edge">
<title>index.js&#45;&gt;node_modules/please&#45;upgrade&#45;node</title>
<path fill="none" stroke="#000000" stroke-opacity="0.200000" d="M98.22,-690.52C119.85,-683.52 150.7,-673.54 174.18,-665.94"/>
<polygon fill="#000000" fill-opacity="0.200000" stroke="#000000" stroke-opacity="0.200000" points="174.92,-667.91 179.99,-664.06 173.63,-663.91 174.92,-667.91"/>
</g>
</g>
</svg>
